<?xml version="1.0" standalone="no"?><!DOCTYPE svg PUBLIC "-//W3C//DTD SVG 1.1//EN" "http://www.w3.org/Graphics/SVG/1.1/DTD/svg11.dtd"><svg t="1549978053872" class="icon" style="" viewBox="0 0 1024 1024" version="1.1" xmlns="http://www.w3.org/2000/svg" p-id="1911" xmlns:xlink="http://www.w3.org/1999/xlink" width="48" height="48"><defs><style type="text/css"></style></defs><path d="M828.5 146H195.1c-72.2 0-130.9 59-130.9 131.6V619c0 72.6 58.7 131.6 130.9 131.6h158c17.2 16.7 11.7 11.4 16.7 16.2l94.8 91.6c12.7 12.2 29.3 19 46.7 19s34-6.7 46.7-19l94.8-91.6 16.3-16.3h159.3c72.2 0 130.9-59 130.9-131.6V277.6c0-72.6-58.7-131.6-130.8-131.6z m71.3 473c0 39.6-32 71.8-71.4 71.8H641.2l-61.5 59.8-16.7 16.3-48.6 47c-1.8 1.7-4.5 1.7-6.2 0l-50-48.3-77.6-74.8H195.1c-39.4 0-71.4-32.2-71.4-71.8V277.6c0-39.6 32-71.8 71.4-71.8h633.4c39.3 0 71.4 32.2 71.4 71.8V619z" fill="#707070" p-id="1912"></path><path d="M724 391.6c-30.1 0-54.5 24.6-54.5 54.8 0 30.2 24.5 54.8 54.5 54.8 30.1 0 54.5-24.6 54.5-54.8 0.1-30.2-24.4-54.8-54.5-54.8zM511.8 391.6c-30.1 0-54.5 24.6-54.5 54.8 0 30.2 24.5 54.8 54.5 54.8 30.1 0 54.5-24.6 54.5-54.8 0-30.2-24.5-54.8-54.5-54.8zM299.5 391.6c-30.1 0-54.5 24.6-54.5 54.8 0 30.2 24.5 54.8 54.5 54.8 30.1 0 54.5-24.6 54.5-54.8 0-30.2-24.4-54.8-54.5-54.8z" fill="#707070" p-id="1913"></path></svg>